<svg width="80" height="80" viewBox="0 0 80 80" fill="none" xmlns="http://www.w3.org/2000/svg">
<g clip-path="url(#clip0_345_26768)">
<rect width="80" height="80" rx="6" fill="white"/>
<path d="M26.2666 19.333C26.2464 19.333 26.2261 19.333 26.2059 19.333L26.1249 26.122C26.1451 26.122 26.1654 26.122 26.1755 26.122C30.5596 26.122 33.9616 29.6457 41.363 42.335L41.8186 43.11L41.849 43.1617L45.9901 36.8377L45.9598 36.786C44.9878 35.174 44.0461 33.686 43.1551 32.3323C42.1123 30.7617 41.12 29.3563 40.148 28.106C35.2576 21.751 31.157 19.333 26.2666 19.333Z" fill="url(#paint0_linear_345_26768)"/>
<path d="M26.2059 19.3336C21.2851 19.3542 16.9415 22.5989 13.7926 27.5589C13.7825 27.5692 13.7724 27.5899 13.7622 27.6002L19.5234 30.7932C19.5335 30.7829 19.5436 30.7622 19.5537 30.7519C21.3864 27.9412 23.6746 26.1432 26.1147 26.1122C26.135 26.1122 26.1552 26.1122 26.1654 26.1122L26.2464 19.3232C26.2464 19.3336 26.2261 19.3336 26.2059 19.3336Z" fill="url(#paint1_linear_345_26768)"/>
<path d="M13.8028 27.5586C13.7926 27.5689 13.7825 27.5896 13.7724 27.5999C11.7069 30.8756 10.1679 34.8849 9.33764 39.2249C9.33764 39.2456 9.32751 39.2663 9.32751 39.2766L15.8075 40.8369C15.8075 40.8163 15.8176 40.7956 15.8176 40.7853C16.5061 36.9723 17.8325 33.4486 19.5436 30.8033C19.5538 30.7929 19.5639 30.7723 19.574 30.7619L13.8028 27.5586Z" fill="url(#paint2_linear_345_26768)"/>
<path d="M15.8176 40.7849L9.33763 39.2246C9.33763 39.2453 9.32751 39.2659 9.32751 39.2763C8.87188 41.6633 8.63901 44.0813 8.63901 46.5096C8.63901 46.5303 8.63901 46.5509 8.63901 46.5716L15.281 47.1813C15.281 47.1606 15.281 47.1399 15.281 47.1193C15.281 46.9746 15.281 46.8403 15.281 46.6956C15.281 44.7323 15.4633 42.7689 15.8075 40.8469C15.8075 40.8159 15.8075 40.8056 15.8176 40.7849Z" fill="url(#paint3_linear_345_26768)"/>
<path d="M15.4835 49.2894C15.362 48.5868 15.3013 47.8841 15.281 47.1814C15.281 47.1608 15.281 47.1401 15.281 47.1194L8.63901 46.5098C8.63901 46.5304 8.63901 46.5511 8.63901 46.5718C8.62889 47.9874 8.75039 49.4031 9.00351 50.8084C9.00351 50.8291 9.01364 50.8498 9.01364 50.8601L15.4936 49.3411C15.4835 49.3308 15.4835 49.3101 15.4835 49.2894Z" fill="url(#paint4_linear_345_26768)"/>
<path d="M16.9921 52.793C16.2733 51.987 15.7569 50.8297 15.4936 49.3417C15.4936 49.321 15.4835 49.3004 15.4835 49.29L9.00351 50.809C9.00351 50.8297 9.01363 50.8504 9.01363 50.8607C9.49963 53.4854 10.4615 55.6657 11.8385 57.319C11.8486 57.3294 11.8588 57.35 11.879 57.3604L17.0326 52.8344C17.0225 52.824 17.0124 52.8034 16.9921 52.793Z" fill="url(#paint5_linear_345_26768)"/>
<path d="M36.1891 34.0068C32.2809 40.1138 29.9218 43.9372 29.9218 43.9372C24.7175 52.2452 22.9254 54.1052 20.0296 54.1052C18.8248 54.1052 17.8123 53.6712 17.0428 52.8238C17.0326 52.8135 17.0124 52.7928 17.0023 52.7825L11.8486 57.3085C11.8588 57.3188 11.8689 57.3395 11.8891 57.3498C13.7926 59.6025 16.4656 60.8528 19.7866 60.8528C24.8086 60.8528 28.4131 58.4452 34.8324 47.0165C34.8324 47.0165 37.5054 42.2012 39.3481 38.8842C38.1838 37.0345 37.151 35.4122 36.1891 34.0068Z" fill="#0082FB"/>
<path d="M43.1551 24.376C43.145 24.3863 43.1247 24.407 43.1146 24.4173C42.0616 25.585 41.0694 26.8146 40.148 28.096C41.1099 29.3463 42.1122 30.7516 43.1551 32.3326C44.3802 30.4003 45.5244 28.84 46.6482 27.6413C46.6584 27.631 46.6786 27.6103 46.6887 27.6L43.1551 24.376Z" fill="url(#paint6_linear_345_26768)"/>
<path d="M62.1091 23.7763C59.3855 20.976 56.1354 19.333 52.6726 19.333C49.0175 19.333 45.9294 21.379 43.1551 24.3757C43.145 24.386 43.1247 24.4067 43.1146 24.417L46.6482 27.6307C46.6584 27.6203 46.6786 27.5997 46.6887 27.5893C48.5214 25.6467 50.2933 24.6857 52.2474 24.6857C54.3635 24.6857 56.3379 25.6983 58.049 27.4757C58.0591 27.486 58.0794 27.5067 58.0895 27.517L62.1496 23.8177C62.1395 23.8073 62.1192 23.797 62.1091 23.7763Z" fill="#0082FB"/>
<path d="M69.9763 45.621C69.8244 36.6207 66.7363 28.571 62.1395 23.8177C62.1294 23.8074 62.1091 23.7867 62.099 23.7764L58.0389 27.4757C58.049 27.486 58.0693 27.5067 58.0794 27.517C61.532 31.1337 63.9013 37.8504 64.1139 45.621C64.1139 45.6417 64.1139 45.6624 64.1139 45.683H69.9763C69.9864 45.6624 69.9763 45.6417 69.9763 45.621Z" fill="url(#paint7_linear_345_26768)"/>
<path d="M69.9864 45.6831C69.9864 45.6624 69.9864 45.6418 69.9864 45.6211H64.124C64.124 45.6418 64.124 45.6624 64.124 45.6831C64.1341 46.0448 64.1341 46.4168 64.1341 46.7784C64.1341 48.8968 63.8202 50.6121 63.1925 51.8418C63.1824 51.8624 63.1722 51.8831 63.1621 51.8934L67.526 56.5228C67.5361 56.5021 67.5462 56.4918 67.5564 56.4711C69.146 53.9808 69.9762 50.5191 69.9762 46.3134C69.9864 46.1068 69.9864 45.8898 69.9864 45.6831Z" fill="url(#paint8_linear_345_26768)"/>
<path d="M63.1925 51.8418C63.1824 51.8625 63.1723 51.8831 63.1621 51.8935C62.6154 52.9371 61.8358 53.6295 60.8131 53.9291L62.8078 60.3255C63.071 60.2325 63.3241 60.1291 63.5772 60.0155C63.6481 59.9845 63.7291 59.9431 63.8 59.9121C63.8405 59.8915 63.881 59.8708 63.9215 59.8501C65.2479 59.1681 66.392 58.1658 67.2526 56.9258C67.3032 56.8431 67.364 56.7708 67.4146 56.6881C67.4551 56.6365 67.4855 56.5745 67.526 56.5228C67.5361 56.5021 67.5462 56.4918 67.5564 56.4711L63.1925 51.8418Z" fill="url(#paint9_linear_345_26768)"/>
<path d="M59.5576 54.1156C58.9299 54.1259 58.3021 54.0019 57.725 53.7539L55.6899 60.3052C56.834 60.7082 58.0591 60.8839 59.426 60.8839C60.6005 60.8942 61.7649 60.7082 62.8786 60.3259L60.884 53.9296C60.4486 54.0536 60.0031 54.1156 59.5576 54.1156Z" fill="url(#paint10_linear_345_26768)"/>
<path d="M55.4772 51.8734C55.4671 51.863 55.457 51.8424 55.4367 51.832L50.7489 56.8024C50.759 56.8127 50.7792 56.8334 50.7894 56.8437C52.4195 58.6107 53.9787 59.7164 55.7405 60.3157L57.7756 53.7747C57.0365 53.444 56.3075 52.855 55.4772 51.8734Z" fill="url(#paint11_linear_345_26768)"/>
<path d="M55.4368 51.832C54.0294 50.1684 52.2879 47.3887 49.5541 42.904L45.98 36.828L45.9496 36.7764L41.8085 43.1004L41.8389 43.152L44.3701 47.4817C46.8204 51.6564 48.815 54.684 50.7489 56.792C50.759 56.8024 50.7793 56.823 50.7894 56.8334L55.4773 51.863C55.4671 51.863 55.4469 51.8424 55.4368 51.832Z" fill="url(#paint12_linear_345_26768)"/>
</g>
<rect x="0.5" y="0.5" width="79" height="79" rx="5.5" stroke="#EDF2F7"/>
<defs>
<linearGradient id="paint0_linear_345_26768" x1="43.2135" y1="40.6007" x2="29.1424" y2="22.5062" gradientUnits="userSpaceOnUse">
<stop offset="0.0006" stop-color="#0867DF"/>
<stop offset="0.4539" stop-color="#0668E1"/>
<stop offset="0.8591" stop-color="#0064E0"/>
</linearGradient>
<linearGradient id="paint1_linear_345_26768" x1="16.4851" y1="28.7084" x2="26.0356" y2="21.5929" gradientUnits="userSpaceOnUse">
<stop offset="0.1323" stop-color="#0064DF"/>
<stop offset="0.9988" stop-color="#0064E0"/>
</linearGradient>
<linearGradient id="paint2_linear_345_26768" x1="12.4877" y1="39.3958" x2="16.3916" y2="29.7518" gradientUnits="userSpaceOnUse">
<stop offset="0.0147" stop-color="#0072EC"/>
<stop offset="0.6881" stop-color="#0064DF"/>
</linearGradient>
<linearGradient id="paint3_linear_345_26768" x1="11.9727" y1="46.3978" x2="12.4267" y2="40.4785" gradientUnits="userSpaceOnUse">
<stop offset="0.0731" stop-color="#007CF6"/>
<stop offset="0.9943" stop-color="#0072EC"/>
</linearGradient>
<linearGradient id="paint4_linear_345_26768" x1="12.2128" y1="49.6139" x2="11.8882" y2="47.2434" gradientUnits="userSpaceOnUse">
<stop offset="0.0731" stop-color="#007FF9"/>
<stop offset="1" stop-color="#007CF6"/>
</linearGradient>
<linearGradient id="paint5_linear_345_26768" x1="12.0307" y1="50.2365" x2="14.0408" y2="54.4205" gradientUnits="userSpaceOnUse">
<stop offset="0.0731" stop-color="#007FF9"/>
<stop offset="1" stop-color="#0082FB"/>
</linearGradient>
<linearGradient id="paint6_linear_345_26768" x1="41.9935" y1="29.8536" x2="44.6347" y2="26.2687" gradientUnits="userSpaceOnUse">
<stop offset="0.2799" stop-color="#007FF8"/>
<stop offset="0.9141" stop-color="#0082FB"/>
</linearGradient>
<linearGradient id="paint7_linear_345_26768" x1="61.5902" y1="25.1426" x2="67.1733" y2="45.2988" gradientUnits="userSpaceOnUse">
<stop stop-color="#0082FB"/>
<stop offset="0.9995" stop-color="#0081FA"/>
</linearGradient>
<linearGradient id="paint8_linear_345_26768" x1="68.2726" y1="46.1239" x2="64.7566" y2="53.0973" gradientUnits="userSpaceOnUse">
<stop offset="0.0619" stop-color="#0081FA"/>
<stop offset="1" stop-color="#0080F9"/>
</linearGradient>
<linearGradient id="paint9_linear_345_26768" x1="62.1554" y1="56.8793" x2="65.3827" y2="54.7221" gradientUnits="userSpaceOnUse">
<stop stop-color="#027AF3"/>
<stop offset="1" stop-color="#0080F9"/>
</linearGradient>
<linearGradient id="paint10_linear_345_26768" x1="57.1519" y1="57.3108" x2="61.5841" y2="57.3108" gradientUnits="userSpaceOnUse">
<stop stop-color="#0377EF"/>
<stop offset="0.9994" stop-color="#0279F1"/>
</linearGradient>
<linearGradient id="paint11_linear_345_26768" x1="53.2997" y1="54.8215" x2="56.5166" y2="56.6788" gradientUnits="userSpaceOnUse">
<stop offset="0.0019" stop-color="#0471E9"/>
<stop offset="1" stop-color="#0377EF"/>
</linearGradient>
<linearGradient id="paint12_linear_345_26768" x1="43.5866" y1="40.7316" x2="54.03" y2="53.6174" gradientUnits="userSpaceOnUse">
<stop offset="0.2765" stop-color="#0867DF"/>
<stop offset="1" stop-color="#0471E9"/>
</linearGradient>
<clipPath id="clip0_345_26768">
<rect width="80" height="80" rx="6" fill="white"/>
</clipPath>
</defs>
</svg>
