<svg width="80" height="80" viewBox="0 0 80 80" fill="none" xmlns="http://www.w3.org/2000/svg">
<rect x="0.5" y="0.5" width="79" height="79" rx="5.5" fill="white"/>
<path d="M40 46.8245C36.2122 46.8245 33.1755 43.7551 33.1755 40C33.1755 36.2449 36.2449 33.1755 40 33.1755C43.7551 33.1755 46.8245 36.2449 46.8245 40C46.8245 43.7551 43.7878 46.8245 40 46.8245ZM64 37.4857H49.3714L62.0408 30.1714L59.5265 25.8286L46.8571 33.1429L54.1714 20.4735L49.8286 17.9592L42.5143 30.6286V16H37.4857V30.6286L30.1714 17.9592L25.8286 20.4735L33.1429 33.1429L20.4735 25.8286L17.9592 30.1714L30.6286 37.4857H16V42.5143H30.6286L17.9592 49.8286L20.4735 54.1714L33.1429 46.8571L25.8286 59.5265L30.1714 62.0408L37.4857 49.3714V64H42.5143V49.0776L49.9592 61.9755L54.0408 59.6245L46.5959 46.6939L59.5265 54.1714L62.0408 49.8286L49.3714 42.5143H64V37.4857Z" fill="#16192C"/>
<rect x="0.5" y="0.5" width="79" height="79" rx="5.5" stroke="#EDF2F7"/>
</svg>
