<svg width="80" height="80" viewBox="0 0 80 80" fill="none" xmlns="http://www.w3.org/2000/svg">
<rect x="0.5" y="0.5" width="79" height="79" rx="5.5" fill="#505780"/>
<path d="M26.5568 54H17.2756V27.8182H26.6335C29.267 27.8182 31.5341 28.3423 33.4347 29.3906C35.3352 30.4304 36.7969 31.9261 37.8196 33.8778C38.8509 35.8295 39.3665 38.1648 39.3665 40.8835C39.3665 43.6108 38.8509 45.9545 37.8196 47.9148C36.7969 49.875 35.3267 51.3793 33.4091 52.4276C31.5 53.4759 29.2159 54 26.5568 54ZM22.8111 49.2571H26.3267C27.9631 49.2571 29.3395 48.9673 30.456 48.3878C31.581 47.7997 32.4247 46.892 32.9872 45.6648C33.5582 44.429 33.8438 42.8352 33.8438 40.8835C33.8438 38.9489 33.5582 37.3679 32.9872 36.1406C32.4247 34.9134 31.5852 34.0099 30.4688 33.4304C29.3523 32.8509 27.9759 32.5611 26.3395 32.5611H22.8111V49.2571ZM46.5032 54H40.5714L49.6097 27.8182H56.7433L65.7688 54H59.837L53.2788 33.8011H53.0742L46.5032 54ZM46.1325 43.7088H60.1438V48.0298H46.1325V43.7088Z" fill="white"/>
<rect x="0.5" y="0.5" width="79" height="79" rx="5.5" stroke="#EDF2F7"/>
</svg>
