<svg width="80" height="80" viewBox="0 0 80 80" fill="none" xmlns="http://www.w3.org/2000/svg">
<rect x="0.5" y="0.5" width="79" height="79" rx="5.5" fill="#FFADBA"/>
<path d="M21.5568 54H12.2756V27.8182H21.6335C24.267 27.8182 26.5341 28.3423 28.4347 29.3906C30.3352 30.4304 31.7969 31.9261 32.8196 33.8778C33.8509 35.8295 34.3665 38.1648 34.3665 40.8835C34.3665 43.6108 33.8509 45.9545 32.8196 47.9148C31.7969 49.875 30.3267 51.3793 28.4091 52.4276C26.5 53.4759 24.2159 54 21.5568 54ZM17.8111 49.2571H21.3267C22.9631 49.2571 24.3395 48.9673 25.456 48.3878C26.581 47.7997 27.4247 46.892 27.9872 45.6648C28.5582 44.429 28.8438 42.8352 28.8438 40.8835C28.8438 38.9489 28.5582 37.3679 27.9872 36.1406C27.4247 34.9134 26.5852 34.0099 25.4688 33.4304C24.3523 32.8509 22.9759 32.5611 21.3395 32.5611H17.8111V49.2571ZM38.467 27.8182H45.2937L52.5039 45.4091H52.8107L60.021 27.8182H66.8477V54H61.4783V36.9588H61.261L54.4854 53.8722H50.8292L44.0536 36.8949H43.8363V54H38.467V27.8182Z" fill="black"/>
<rect x="0.5" y="0.5" width="79" height="79" rx="5.5" stroke="#EDF2F7"/>
</svg>
