<svg width="59" height="80" viewBox="0 0 59 80" fill="none" xmlns="http://www.w3.org/2000/svg">
<g opacity="0.5" clip-path="url(#clip0_348_27545)">
<path d="M21.4172 42.0459H10.2533V39.2759H24.6489C24.2711 38.1007 23.054 37.0095 20.9136 37.0095H10.4631C8.07083 37.0095 6.68583 37.8909 6.68583 39.8215V41.878C6.68583 43.5568 8.1128 44.5221 10.2113 44.5221H21.5011V47.46H6.30811C6.68583 49.0548 7.90295 49.8942 10.0854 49.8942H21.4592C23.8514 49.8942 25.0266 48.9709 25.0266 46.9983V44.9418C25.0266 43.1371 23.6416 42.1718 21.4172 42.0459ZM44.2068 37.0515H30.4407V49.9362H34.3439V44.9837H44.5005C47.3125 44.9837 48.8654 44.0184 48.8654 41.7521V40.3251C48.8234 38.2266 47.0607 37.0515 44.2068 37.0515ZM45.4659 41.1645C45.4659 42.0878 45.298 42.5915 43.7871 42.5915H34.3439L34.3858 39.2339H43.6192C45.298 39.2339 45.5078 39.7375 45.5078 40.6189V41.1645H45.4659ZM61.834 44.8998H53.524L51.4675 47.0822H63.4709L65.5274 49.9362H70.144L60.1972 36.5059L57.8469 39.4018L61.834 44.8998ZM77.6146 39.2759H92.2201C91.8424 37.765 90.3734 37.0095 88.275 37.0095H77.3628C75.4742 37.0095 73.6695 37.765 73.6695 39.8215V47.0403C73.6695 49.0968 75.4742 49.8522 77.3628 49.8522H88.4009C90.9191 49.8522 91.8004 49.1387 92.2201 47.418H77.6146V39.2759ZM109.344 43.5568V41.3743H97.5503V49.9362H114.968V47.5019H101.495V43.5568H109.344ZM97.97 37.0515H115.555V39.3178H97.97V37.0515ZM126.383 37.0515H120.256L127.475 42.3396C128.524 41.6262 129.741 40.8707 130.832 40.2412L126.383 37.0515ZM135.281 43.6407C134.232 44.3542 133.183 45.1516 132.175 45.9071L137.631 49.8942H143.801L135.281 43.6407Z" fill="black"/>
<g style="mix-blend-mode:color">
<rect x="-7.84619" width="280" height="123" fill="black"/>
</g>
</g>
<defs>
<clipPath id="clip0_348_27545">
<rect width="172.308" height="80" fill="white" transform="translate(0.153809)"/>
</clipPath>
</defs>
</svg>
