<svg width="173" height="80" viewBox="0 0 173 80" fill="none" xmlns="http://www.w3.org/2000/svg">
<g opacity="0.5" clip-path="url(#clip0_325_26675)">
<path d="M21.4941 42.0459H10.3302V39.2759H24.7258C24.348 38.1007 23.1309 37.0095 20.9905 37.0095H10.54C8.14774 37.0095 6.76274 37.8909 6.76274 39.8215V41.878C6.76274 43.5568 8.18971 44.5221 10.2882 44.5221H21.578V47.46H6.38501C6.76274 49.0548 7.97986 49.8942 10.1623 49.8942H21.5361C23.9283 49.8942 25.1035 48.9709 25.1035 46.9983V44.9418C25.1035 43.1371 23.7185 42.1718 21.4941 42.0459ZM44.2837 37.0515H30.5176V49.9362H34.4208V44.9837H44.5774C47.3894 44.9837 48.9423 44.0184 48.9423 41.7521V40.3251C48.9003 38.2266 47.1376 37.0515 44.2837 37.0515ZM45.5428 41.1645C45.5428 42.0878 45.3749 42.5915 43.864 42.5915H34.4208L34.4627 39.2339H43.6961C45.3749 39.2339 45.5847 39.7375 45.5847 40.6189V41.1645H45.5428ZM61.9109 44.8998H53.6009L51.5444 47.0822H63.5478L65.6043 49.9362H70.2209L60.2741 36.5059L57.9238 39.4018L61.9109 44.8998ZM77.6916 39.2759H92.297C91.9193 37.765 90.4503 37.0095 88.3519 37.0095H77.4397C75.5511 37.0095 73.7464 37.765 73.7464 39.8215V47.0403C73.7464 49.0968 75.5511 49.8522 77.4397 49.8522H88.4778C90.996 49.8522 91.8773 49.1387 92.297 47.418H77.6916V39.2759ZM109.421 43.5568V41.3743H97.6272V49.9362H115.045V47.5019H101.572V43.5568H109.421ZM98.0469 37.0515H115.632V39.3178H98.0469V37.0515ZM126.46 37.0515H120.333L127.552 42.3396C128.601 41.6262 129.818 40.8707 130.909 40.2412L126.46 37.0515ZM135.358 43.6407C134.309 44.3542 133.259 45.1516 132.252 45.9071L137.708 49.8942H143.878L135.358 43.6407Z" fill="black"/>
<path d="M173.214 29.5381C139.638 31.4687 124.11 45.8223 120.626 49.2219L119.913 49.8934H126.124C142.912 33.0635 167.045 30.0837 173.214 29.5381Z" fill="black"/>
<g style="mix-blend-mode:color">
<rect x="-7.76929" width="280" height="123" fill="black"/>
</g>
</g>
<defs>
<clipPath id="clip0_325_26675">
<rect width="172.308" height="80" fill="white" transform="translate(0.230713)"/>
</clipPath>
</defs>
</svg>
