<svg width="173" height="80" viewBox="0 0 173 80" fill="none" xmlns="http://www.w3.org/2000/svg">
<path d="M36.0465 56.6569C33.9544 57.0238 31.8255 57.1338 29.6232 57.4268L22.906 37.778V58.2701C20.8138 58.49 18.9052 58.7833 16.9231 59.0765V21.5381H22.5024L30.137 42.8371V21.5381H36.0465V56.6569ZM47.6088 35.2851C49.8847 35.2851 53.3717 35.1751 55.4638 35.1751V41.0403C52.8576 41.0403 49.8112 41.0403 47.6088 41.1503V49.8753C51.0592 49.6554 54.5095 49.3618 57.9964 49.2518V54.8969L41.7358 56.1803V21.5381H57.9964V27.4035H47.6088V35.2851ZM79.8361 27.4036H73.743V54.3843C71.7609 54.3843 69.7788 54.3843 67.8704 54.4575V27.4036H61.7774V21.5381H79.8363L79.8361 27.4036ZM89.3794 34.882H97.418V40.7472H89.3794V54.0545H83.6163V21.5381H100.024V27.4035H89.3794V34.882ZM109.567 48.9221C112.908 48.9952 116.284 49.2522 119.551 49.4352V55.2274C114.303 54.8972 109.054 54.5677 103.695 54.4575V21.5381H109.567V48.9221ZM124.507 55.6306C126.378 55.7408 128.361 55.8508 130.269 56.0704V21.5381H124.507V55.6306ZM156 21.5381L148.549 39.3909L156 59.0765C153.797 58.7833 151.595 58.38 149.393 58.0134L145.172 47.1626L140.878 57.1339C138.748 56.7669 136.693 56.6569 134.564 56.3637L142.126 39.1708L135.298 21.5381H141.611L145.465 31.3993L149.576 21.5381H156Z" fill="#D81F26"/>
</svg>
