<svg width="174" height="80" viewBox="0 0 174 80" fill="none" xmlns="http://www.w3.org/2000/svg">
<g clip-path="url(#clip0_325_26683)">
<path d="M36.5849 56.6569C34.4928 57.0238 32.3638 57.1338 30.1616 57.4268L23.4443 37.778V58.2701C21.3522 58.49 19.4435 58.7833 17.4614 59.0765V21.5381H23.0408L30.6754 42.8371V21.5381H36.5849V56.6569ZM48.1472 35.2851C50.4231 35.2851 53.91 35.1751 56.0022 35.1751V41.0403C53.396 41.0403 50.3496 41.0403 48.1472 41.1503V49.8753C51.5976 49.6554 55.0479 49.3618 58.5347 49.2518V54.8969L42.2742 56.1803V21.5381H58.5347V27.4035H48.1472V35.2851ZM80.3744 27.4036H74.2814V54.3843C72.2993 54.3843 70.3172 54.3843 68.4088 54.4575V27.4036H62.3158V21.5381H80.3747L80.3744 27.4036ZM89.9178 34.882H97.9564V40.7472H89.9178V54.0545H84.1546V21.5381H100.562V27.4035H89.9178V34.882ZM110.106 48.9221C113.446 48.9952 116.823 49.2522 120.09 49.4352V55.2274C114.841 54.8972 109.592 54.5677 104.233 54.4575V21.5381H110.106V48.9221ZM125.045 55.6306C126.917 55.7408 128.899 55.8508 130.808 56.0704V21.5381H125.045V55.6306ZM156.538 21.5381L149.087 39.3909L156.538 59.0765C154.336 58.7833 152.133 58.38 149.931 58.0134L145.71 47.1626L141.416 57.1339C139.287 56.7669 137.231 56.6569 135.103 56.3637L142.664 39.1708L135.837 21.5381H142.15L146.004 31.3993L150.115 21.5381H156.538Z" fill="#D81F26"/>
<g style="mix-blend-mode:color">
<rect x="0.538452" y="-1.84668" width="172.308" height="75.6923" fill="black"/>
</g>
</g>
<defs>
<clipPath id="clip0_325_26683">
<rect width="172.308" height="80" fill="white" transform="translate(0.846069)"/>
</clipPath>
</defs>
</svg>
