<svg width="86" height="20" viewBox="0 0 86 20" fill="none" xmlns="http://www.w3.org/2000/svg">
<path d="M48.7369 12.6614H52.1245V9.87933L40.1114 0.0634766H36.7161V2.83792L41.0234 6.3593L36.7161 9.87943V12.6615H40.102L44.4203 9.13379L48.7369 12.6614Z" fill="#909090"/>
<path d="M52.2021 3.34261L49.0425 5.92559L44.9539 2.58303L48.1134 0" fill="url(#paint0_linear_870_27501)"/>
<path d="M48.1132 0L52.2034 0V3.34381H48.1133L48.1132 0ZM65.1813 10.1342L66.6735 12.6614H69.8966V9.87174L64.55 0.361411L64.395 0.0621123H60.0519L59.8968 0.358871L54.4913 9.8692V12.6589H57.6555L59.1368 10.1317L65.1813 10.1342ZM62.1986 3.55051L64.1452 7.3306H60.2442L62.1986 3.55051ZM29.6367 10.1342L31.1289 12.6614H34.3536V9.87174L29.0054 0.362705L28.8503 0.0634063H24.5073L24.3522 0.360117L18.9467 9.87049V12.6602H22.1125L23.6636 10.1329L29.6367 10.1342ZM26.6478 3.55051L28.5959 7.3306H24.6996L26.6478 3.55051ZM77.7591 8.04196L77.8009 8.08256L82.417 12.626H85.2678V10.3003L82.4139 7.60828L82.7783 7.46369C83.3838 7.22284 83.9174 6.87659 84.3418 6.44923C84.9995 5.79241 85.3345 4.96439 85.3345 3.99053C85.3345 2.73007 84.8226 1.74605 83.8129 1.06641C82.828 0.399417 81.5204 0.0633584 79.9181 0.0633584H72.4357V12.6614H76.2669V7.95575H77.6706L77.7591 8.04196ZM76.2669 5.11784V2.85305H80.1338C80.493 2.86279 80.8335 2.9863 81.0833 3.19747C81.3332 3.40865 81.4729 3.69096 81.4729 3.98477C81.4729 4.27859 81.3332 4.5609 81.0833 4.77208C80.8335 4.98325 80.493 5.10676 80.1338 5.1165H76.2669V5.11784ZM12.5733 12.6614H16.3982L16.3965 0.0634063H12.2877L12.0194 0.395631L8.19904 5.47034L4.37402 0.391844L4.11039 0.0634063H0L0.00175871 12.6614H3.82671V6.11576L6.66832 10.1342H9.73322L12.5733 6.11576V12.6614ZM22.1512 17.0996H21.1445L21.0902 17.1427V19.4696L21.0375 19.5128H20.1782L20.124 19.4696V17.1427L20.0712 17.0996H18.9978L18.9435 17.0552V16.4845L18.9978 16.4414H22.1512L22.2054 16.4845V17.0552L22.1512 17.0996ZM26.2135 19.5127H23.4805L23.4262 19.4695V16.4846L23.4805 16.4415H26.2135L26.2678 16.4846V17.0552L26.2135 17.0996H24.4468L24.3925 17.1427V17.5815L24.4468 17.6259H26.1111L26.1639 17.6702V18.2408L26.1111 18.284H24.4468L24.3925 18.3284V18.8115L24.4468 18.8546H26.2135L26.2678 18.899V19.4696L26.2135 19.5127ZM27.3535 17.9771C27.3535 16.9234 28.2113 16.3971 29.2319 16.3971C30.1982 16.3971 30.783 16.7915 30.9505 17.3621L30.8962 17.4065H29.9997L29.9299 17.3621C29.8229 17.1871 29.6615 17.0552 29.2319 17.0552C28.748 17.0552 28.3199 17.2746 28.3199 17.9771C28.3199 18.6796 28.748 18.899 29.2319 18.899C29.6616 18.899 29.8229 18.7722 29.9299 18.5477L29.9997 18.5033H30.8962L30.9505 18.5477C30.7954 19.1615 30.1982 19.5622 29.2319 19.5622C28.2113 19.5571 27.3536 19.0309 27.3536 17.9771H27.3535ZM35.4533 19.5127H34.5893L34.5366 19.4695V18.3283L34.4823 18.2839H33.2415L33.1872 18.3283V19.4696L33.1344 19.5127H32.2751L32.2208 19.4696V16.4846L32.2751 16.4415H33.1344L33.1872 16.4846V17.5814L33.2415 17.6258H34.4823L34.5366 17.5814V16.4846L34.5893 16.4415H35.4486L35.5029 16.4846V19.4696L35.4533 19.5127ZM37.1719 16.4415H38.0839L38.191 16.4846L39.4799 18.1521H39.5342V16.4847L39.5869 16.4416H40.4462L40.5005 16.4847V19.4697L40.4462 19.5128H39.5342L39.4257 19.4697L38.1383 17.8022H38.0839V19.4697L38.0312 19.5128H37.1719L37.1176 19.4697V16.4847L37.1719 16.4415ZM43.5949 16.3971C44.7211 16.3971 45.4733 16.9677 45.4733 17.9771C45.4733 18.9864 44.721 19.5571 43.595 19.5571C42.4688 19.5571 41.715 18.9865 41.715 17.9771C41.715 16.9677 42.4673 16.3971 43.5949 16.3971ZM43.5949 18.899C44.1844 18.899 44.507 18.5921 44.507 17.9771C44.507 17.3621 44.1844 17.0552 43.5949 17.0552C43.0055 17.0552 42.6813 17.3621 42.6813 17.9771C42.6813 18.5921 43.004 18.8939 43.5949 18.8939V18.899ZM49.2719 19.5127H46.7482L46.6954 19.4695V16.4846L46.7482 16.4415H47.6075L47.6618 16.4846V18.8115L47.7146 18.8546H49.2656L49.3199 18.899V19.4696L49.2719 19.5127ZM52.0111 16.3971C53.1372 16.3971 53.8894 16.9677 53.8894 17.9771C53.8894 18.9864 53.1372 19.5571 52.0111 19.5571C50.885 19.5571 50.1312 18.9865 50.1312 17.9771C50.1312 16.9677 50.8835 16.3971 52.0111 16.3971ZM52.0111 18.899C52.6005 18.899 52.9231 18.5921 52.9231 17.9771C52.9231 17.3621 52.6005 17.0552 52.0111 17.0552C51.4217 17.0552 51.0975 17.3621 51.0975 17.9771C51.0975 18.5921 51.4202 18.8939 52.0111 18.8939V18.899ZM55.8624 17.9771C55.8624 18.7227 56.2921 18.899 56.8288 18.899C57.3654 18.899 57.581 18.6352 57.581 18.4159L57.5267 18.3727H56.6691L56.6148 18.3283V17.8021L56.6691 17.7577H58.4931L58.5474 17.8021V19.4696L58.4931 19.5127H57.7951L57.7424 19.4696L57.6881 19.2933H57.6354C57.5129 19.3856 57.3688 19.4566 57.2117 19.5019C57.0547 19.5473 56.888 19.5661 56.7218 19.5571C55.6484 19.5571 54.8962 18.9864 54.8962 17.9771C54.8962 16.9677 55.6484 16.3971 56.8288 16.3971C57.7952 16.3971 58.3799 16.7915 58.5474 17.3621L58.4931 17.4065H57.5965L57.5267 17.3621C57.4197 17.1871 57.2584 17.0552 56.8287 17.0552C56.2393 17.0552 55.8624 17.2746 55.8624 17.9771V17.9771ZM60.9361 19.5127H60.0783L60.024 19.4695V16.4846L60.0783 16.4415H60.9361L60.9903 16.4846V19.4696L60.9361 19.5127ZM65.3535 19.5127H62.6143L62.5615 19.4695V16.4846L62.6143 16.4415H65.3535L65.4063 16.4846V17.0552L65.3535 17.0996H63.5806L63.5279 17.1427V17.5815L63.5806 17.6259H65.2449L65.2992 17.6702V18.2408L65.2449 18.284H63.5806L63.5279 18.3284V18.8115L63.5806 18.8546H65.3535L65.4063 18.899V19.4696L65.3535 19.5127ZM68.3936 18.3284L68.0167 18.284C66.8906 18.1572 66.675 17.7133 66.675 17.2695C66.675 16.7864 67.1589 16.392 68.2261 16.392C69.1924 16.392 69.7772 16.6989 69.7772 17.3139L69.7229 17.357H68.8636L68.8108 17.3139C68.8108 17.1376 68.6557 17.0057 68.2199 17.0057C67.784 17.0057 67.5762 17.0945 67.5762 17.2695C67.5762 17.4445 67.7902 17.4889 68.1656 17.5333L68.5409 17.5764C69.6686 17.7032 69.8842 18.1039 69.8842 18.5909C69.8842 19.0778 69.4545 19.5558 68.2726 19.5558C67.1993 19.5558 66.6099 19.2045 66.6099 18.5414L66.6626 18.497H67.5219L67.5762 18.5414C67.5762 18.8051 67.7903 18.9358 68.2727 18.9358C68.7023 18.9358 68.9706 18.8483 68.9706 18.6289C68.9706 18.4095 68.769 18.3727 68.3936 18.3284V18.3284Z" fill="#909090"/>
<defs>
<linearGradient id="paint0_linear_870_27501" x1="54.6049" y1="-2.15565" x2="47.0396" y2="7.45138" gradientUnits="userSpaceOnUse">
<stop offset="0.27" stop-color="#808080"/>
<stop offset="0.37" stop-color="#848484" stop-opacity="0.97"/>
<stop offset="0.47" stop-color="#8F8F8F" stop-opacity="0.88"/>
<stop offset="0.56" stop-color="#A2A2A2" stop-opacity="0.73"/>
<stop offset="0.65" stop-color="#BDBDBD" stop-opacity="0.52"/>
<stop offset="0.74" stop-color="#DFDFDF" stop-opacity="0.25"/>
<stop offset="0.81" stop-color="white" stop-opacity="0"/>
</linearGradient>
</defs>
</svg>
