<svg width="25" height="25" viewBox="0 0 25 25" fill="none" xmlns="http://www.w3.org/2000/svg">
<path d="M21.2106 21.4364H17.6544V15.8673C17.6544 14.5393 17.6307 12.8298 15.8048 12.8298C13.9527 12.8298 13.6693 14.2767 13.6693 15.7706V21.4361H10.1131V9.98371H13.527V11.5488H13.5748C13.9165 10.9646 14.4102 10.4841 15.0033 10.1583C15.5965 9.83254 16.2669 9.67375 16.9432 9.69885C20.5475 9.69885 21.2121 12.0696 21.2121 15.1539L21.2106 21.4364ZM6.10056 8.41826C5.6924 8.41833 5.29338 8.29737 4.95397 8.07067C4.61456 7.84397 4.34999 7.52171 4.19373 7.14465C4.03746 6.76759 3.99652 6.35265 4.07608 5.95232C4.15563 5.55199 4.35211 5.18424 4.64067 4.89558C4.92923 4.60691 5.29691 4.4103 5.69722 4.3306C6.09752 4.2509 6.51246 4.29169 6.88958 4.44782C7.2667 4.60395 7.58905 4.8684 7.81587 5.20773C8.0427 5.54706 8.1638 5.94603 8.16388 6.35419C8.16392 6.6252 8.11059 6.89357 8.00693 7.14396C7.90326 7.39436 7.75129 7.62189 7.5597 7.81355C7.3681 8.00522 7.14063 8.15727 6.89027 8.26102C6.63991 8.36478 6.37156 8.41821 6.10056 8.41826ZM7.87864 21.4364H4.31877V9.98371H7.87864V21.4364ZM22.9835 0.988451H2.53179C2.06759 0.983213 1.62031 1.16248 1.28822 1.48686C0.95613 1.81124 0.766407 2.25419 0.760742 2.71838V23.2549C0.766214 23.7193 0.955814 24.1626 1.28789 24.4873C1.61997 24.812 2.06736 24.9916 2.53179 24.9867H22.9835C23.4488 24.9925 23.8975 24.8134 24.2309 24.4887C24.5642 24.164 24.7551 23.7202 24.7616 23.2549V2.7169C24.7549 2.25179 24.5639 1.80833 24.2305 1.48396C23.8971 1.15959 23.4486 0.980835 22.9835 0.986969" fill="#0A66C2"/>
</svg>
