<svg width="49" height="48" viewBox="0 0 49 48" fill="none" xmlns="http://www.w3.org/2000/svg">
<path d="M40.8997 40.8992H33.7873V29.761C33.7873 27.105 33.7399 23.6859 30.0882 23.6859C26.3838 23.6859 25.8171 26.5797 25.8171 29.5676V40.8985H18.7047V17.9938H25.5326V21.124H25.6281C26.3114 19.9556 27.2988 18.9945 28.4852 18.343C29.6715 17.6914 31.0123 17.3739 32.3649 17.4241C39.5735 17.4241 40.9026 22.1656 40.9026 28.3341L40.8997 40.8992ZM10.6796 14.8629C9.86331 14.863 9.06528 14.6211 8.38645 14.1677C7.70763 13.7143 7.17849 13.0698 6.86597 12.3157C6.55344 11.5615 6.47155 10.7317 6.63067 9.93101C6.78978 9.13035 7.18274 8.39485 7.75986 7.81752C8.33698 7.24019 9.07234 6.84697 9.87295 6.68757C10.6736 6.52817 11.5034 6.60975 12.2577 6.92201C13.0119 7.23427 13.6566 7.76317 14.1103 8.44183C14.5639 9.12049 14.8061 9.91844 14.8063 10.7348C14.8064 11.2768 14.6997 11.8135 14.4924 12.3143C14.285 12.8151 13.9811 13.2701 13.5979 13.6535C13.2147 14.0368 12.7598 14.3409 12.2591 14.5484C11.7583 14.7559 11.2216 14.8628 10.6796 14.8629ZM14.2358 40.8992H7.11605V17.9938H14.2358V40.8992ZM44.4455 0.00326912H3.54209C2.6137 -0.00720777 1.71913 0.351325 1.05495 1.00008C0.390775 1.64884 0.0113305 2.53475 0 3.46313V44.5362C0.0109427 45.465 0.390144 46.3515 1.0543 47.0009C1.71845 47.6504 2.61324 48.0096 3.54209 47.9997H44.4455C45.3762 48.0114 46.2734 47.6532 46.9402 47.0038C47.607 46.3544 47.9888 45.4668 48.0016 44.5362V3.46016C47.9884 2.52994 47.6064 1.64303 46.9396 0.994289C46.2728 0.345547 45.3757 -0.0119629 44.4455 0.000305643" fill="#0A66C2"/>
</svg>
