<svg width="81" height="81" viewBox="0 0 81 81" fill="none" xmlns="http://www.w3.org/2000/svg">
<rect x="0.551758" y="0.72168" width="79" height="79" rx="5.5" fill="white"/>
<path d="M56.9514 57.1209H49.8391V45.9827C49.8391 43.3267 49.7917 39.9076 46.1399 39.9076C42.4356 39.9076 41.8688 42.8014 41.8688 45.7893V57.1202H34.7565V34.2155H41.5843V37.3456H41.6799C42.3632 36.1773 43.3506 35.2162 44.5369 34.5647C45.7232 33.9131 47.0641 33.5955 48.4166 33.6457C55.6253 33.6457 56.9544 38.3873 56.9544 44.5558L56.9514 57.1209ZM26.7314 31.0846C25.9151 31.0847 25.117 30.8428 24.4382 30.3894C23.7594 29.936 23.2303 29.2915 22.9177 28.5373C22.6052 27.7832 22.5233 26.9534 22.6824 26.1527C22.8415 25.352 23.2345 24.6165 23.8116 24.0392C24.3887 23.4619 25.1241 23.0686 25.9247 22.9092C26.7253 22.7498 27.5552 22.8314 28.3094 23.1437C29.0637 23.4559 29.7084 23.9848 30.162 24.6635C30.6157 25.3422 30.8579 26.1401 30.858 26.9564C30.8581 27.4985 30.7515 28.0352 30.5441 28.536C30.3368 29.0368 30.0329 29.4918 29.6497 29.8752C29.2665 30.2585 28.8115 30.5626 28.3108 30.7701C27.8101 30.9776 27.2734 31.0845 26.7314 31.0846ZM30.2876 57.1209H23.1678V34.2155H30.2876V57.1209ZM60.4972 16.2249H19.5939C18.6655 16.2145 17.7709 16.573 17.1067 17.2218C16.4425 17.8705 16.0631 18.7564 16.0518 19.6848V60.7578C16.0627 61.6867 16.4419 62.5732 17.1061 63.2226C17.7702 63.872 18.665 64.2313 19.5939 64.2214H60.4972C61.4279 64.2331 62.3252 63.8749 62.992 63.2254C63.6588 62.576 64.0405 61.6885 64.0534 60.7578V19.6818C64.0401 18.7516 63.6581 17.8647 62.9913 17.216C62.3245 16.5672 61.4275 16.2097 60.4972 16.222" fill="#0A66C2"/>
<rect x="0.551758" y="0.72168" width="79" height="79" rx="5.5" stroke="#EDF2F7"/>
</svg>
