<svg width="216" height="187" viewBox="0 0 216 187" fill="none" xmlns="http://www.w3.org/2000/svg">
<g clip-path="url(#clip0_756_27179)">
<rect x="0.5" y="0.0629883" width="215" height="186" rx="6" fill="white"/>
<path d="M69.8497 38.063C69.7957 38.063 69.7417 38.063 69.6877 38.063L69.4717 56.1305C69.5257 56.1305 69.5797 56.1305 69.6067 56.1305C81.2977 56.1305 90.3697 65.508 110.107 99.278L111.322 101.34L111.403 101.478L122.446 84.648L122.365 84.5105C119.773 80.2205 117.262 76.2605 114.886 72.658C112.105 68.478 109.459 64.738 106.867 61.4105C93.8257 44.498 82.8907 38.063 69.8497 38.063Z" fill="url(#paint0_linear_756_27179)"/>
<path d="M69.6877 38.0631C56.5657 38.1181 44.9827 46.7531 36.5857 59.9531C36.5587 59.9806 36.5317 60.0356 36.5047 60.0631L51.8677 68.5606C51.8947 68.5331 51.9217 68.4781 51.9487 68.4506C56.8357 60.9706 62.9377 56.1856 69.4447 56.1031C69.4987 56.1031 69.5527 56.1031 69.5797 56.1031L69.7957 38.0356C69.7957 38.0631 69.7417 38.0631 69.6877 38.0631Z" fill="url(#paint1_linear_756_27179)"/>
<path d="M36.6126 59.9531C36.5856 59.9806 36.5586 60.0356 36.5316 60.0631C31.0236 68.7806 26.9196 79.4506 24.7056 91.0006C24.7056 91.0556 24.6786 91.1106 24.6786 91.1381L41.9587 95.2906C41.9587 95.2356 41.9857 95.1806 41.9857 95.1531C43.8217 85.0056 47.3587 75.6281 51.9216 68.5881C51.9486 68.5606 51.9757 68.5056 52.0026 68.4781L36.6126 59.9531Z" fill="url(#paint2_linear_756_27179)"/>
<path d="M41.9857 95.153L24.7057 91.0005C24.7057 91.0555 24.6787 91.1105 24.6787 91.138C23.4637 97.4905 22.8427 103.925 22.8427 110.388C22.8427 110.443 22.8427 110.498 22.8427 110.553L40.5547 112.175C40.5547 112.12 40.5547 112.065 40.5547 112.01C40.5547 111.625 40.5547 111.268 40.5547 110.883C40.5547 105.658 41.0407 100.433 41.9587 95.318C41.9587 95.2355 41.9587 95.208 41.9857 95.153Z" fill="url(#paint3_linear_756_27179)"/>
<path d="M41.0947 117.786C40.7707 115.916 40.6087 114.046 40.5547 112.176C40.5547 112.121 40.5547 112.066 40.5547 112.011L22.8427 110.388C22.8427 110.443 22.8427 110.498 22.8427 110.553C22.8157 114.321 23.1397 118.088 23.8147 121.828C23.8147 121.883 23.8417 121.938 23.8417 121.966L41.1217 117.923C41.0947 117.896 41.0947 117.841 41.0947 117.786Z" fill="url(#paint4_linear_756_27179)"/>
<path d="M45.1177 127.108C43.2007 124.963 41.8237 121.883 41.1217 117.923C41.1217 117.868 41.0947 117.813 41.0947 117.786L23.8147 121.828C23.8147 121.883 23.8417 121.938 23.8417 121.966C25.1377 128.951 27.7027 134.753 31.3747 139.153C31.4017 139.181 31.4287 139.236 31.4827 139.263L45.2257 127.218C45.1987 127.191 45.1717 127.136 45.1177 127.108Z" fill="url(#paint5_linear_756_27179)"/>
<path d="M96.3097 77.1128C85.8877 93.3653 79.5967 103.54 79.5967 103.54C65.7187 125.65 60.9397 130.6 53.2177 130.6C50.0047 130.6 47.3047 129.445 45.2527 127.19C45.2257 127.163 45.1717 127.108 45.1447 127.08L31.4017 139.125C31.4287 139.153 31.4557 139.208 31.5097 139.235C36.5857 145.23 43.7137 148.558 52.5697 148.558C65.9617 148.558 75.5737 142.15 92.6917 111.735C92.6917 111.735 99.8197 98.9203 104.734 90.0928C101.629 85.1703 98.8747 80.8528 96.3097 77.1128Z" fill="#0082FB"/>
<path d="M114.886 51.4829C114.859 51.5104 114.805 51.5654 114.778 51.5929C111.97 54.7004 109.324 57.9729 106.867 61.3829C109.432 64.7104 112.105 68.4504 114.886 72.6579C118.153 67.5154 121.204 63.3629 124.201 60.1729C124.228 60.1454 124.282 60.0904 124.309 60.0629L114.886 51.4829Z" fill="url(#paint6_linear_756_27179)"/>
<path d="M165.43 49.888C158.167 42.4355 149.5 38.063 140.266 38.063C130.519 38.063 122.284 43.508 114.886 51.483C114.859 51.5105 114.805 51.5655 114.778 51.593L124.201 60.1455C124.228 60.118 124.282 60.063 124.309 60.0355C129.196 54.8655 133.921 52.308 139.132 52.308C144.775 52.308 150.04 55.003 154.603 59.733C154.63 59.7605 154.684 59.8155 154.711 59.843L165.538 49.998C165.511 49.9705 165.457 49.943 165.43 49.888Z" fill="#0082FB"/>
<path d="M186.409 108.023C186.004 84.0707 177.769 62.6482 165.511 49.9982C165.484 49.9707 165.43 49.9157 165.403 49.8882L154.576 59.7332C154.603 59.7607 154.657 59.8157 154.684 59.8432C163.891 69.4682 170.209 87.3432 170.776 108.023C170.776 108.078 170.776 108.133 170.776 108.188H186.409C186.436 108.133 186.409 108.078 186.409 108.023Z" fill="url(#paint7_linear_756_27179)"/>
<path d="M186.436 108.188C186.436 108.133 186.436 108.078 186.436 108.023H170.803C170.803 108.078 170.803 108.133 170.803 108.188C170.83 109.15 170.83 110.14 170.83 111.103C170.83 116.74 169.993 121.305 168.319 124.578C168.292 124.633 168.265 124.688 168.238 124.715L179.875 137.035C179.902 136.98 179.929 136.953 179.956 136.898C184.195 130.27 186.409 121.058 186.409 109.865C186.436 109.315 186.436 108.738 186.436 108.188Z" fill="url(#paint8_linear_756_27179)"/>
<path d="M168.319 124.578C168.292 124.633 168.265 124.688 168.238 124.716C166.78 127.493 164.701 129.336 161.974 130.133L167.293 147.156C167.995 146.908 168.67 146.633 169.345 146.331C169.534 146.248 169.75 146.138 169.939 146.056C170.047 146.001 170.155 145.946 170.263 145.891C173.8 144.076 176.851 141.408 179.146 138.108C179.281 137.888 179.443 137.696 179.578 137.476C179.686 137.338 179.767 137.173 179.875 137.036C179.902 136.981 179.929 136.953 179.956 136.898L168.319 124.578Z" fill="url(#paint9_linear_756_27179)"/>
<path d="M158.626 130.628C156.952 130.656 155.278 130.326 153.739 129.666L148.312 147.101C151.363 148.173 154.63 148.641 158.275 148.641C161.407 148.668 164.512 148.173 167.482 147.156L162.163 130.133C161.002 130.463 159.814 130.628 158.626 130.628Z" fill="url(#paint10_linear_756_27179)"/>
<path d="M147.745 124.66C147.718 124.633 147.691 124.578 147.637 124.55L135.136 137.778C135.163 137.805 135.217 137.86 135.244 137.888C139.591 142.59 143.749 145.533 148.447 147.128L153.874 129.72C151.903 128.84 149.959 127.273 147.745 124.66Z" fill="url(#paint11_linear_756_27179)"/>
<path d="M147.637 124.55C143.884 120.123 139.24 112.725 131.95 100.79L122.419 84.6204L122.338 84.4829L111.295 101.313L111.376 101.45L118.126 112.973C124.66 124.083 129.979 132.14 135.136 137.75C135.163 137.778 135.217 137.833 135.244 137.86L147.745 124.633C147.718 124.633 147.664 124.578 147.637 124.55Z" fill="url(#paint12_linear_756_27179)"/>
</g>
<rect x="1" y="0.562988" width="214" height="185" rx="5.5" stroke="#EDF2F7"/>
<defs>
<linearGradient id="paint0_linear_756_27179" x1="115.041" y1="94.6625" x2="77.6128" y2="46.4346" gradientUnits="userSpaceOnUse">
<stop offset="0.0006" stop-color="#0867DF"/>
<stop offset="0.4539" stop-color="#0668E1"/>
<stop offset="0.8591" stop-color="#0064E0"/>
</linearGradient>
<linearGradient id="paint1_linear_756_27179" x1="43.7657" y1="63.0122" x2="69.1969" y2="44.0266" gradientUnits="userSpaceOnUse">
<stop offset="0.1323" stop-color="#0064DF"/>
<stop offset="0.9988" stop-color="#0064E0"/>
</linearGradient>
<linearGradient id="paint2_linear_756_27179" x1="33.1059" y1="91.4554" x2="43.4801" y2="65.7755" gradientUnits="userSpaceOnUse">
<stop offset="0.0147" stop-color="#0072EC"/>
<stop offset="0.6881" stop-color="#0064DF"/>
</linearGradient>
<linearGradient id="paint3_linear_756_27179" x1="31.7325" y1="110.091" x2="32.9383" y2="94.3371" gradientUnits="userSpaceOnUse">
<stop offset="0.0731" stop-color="#007CF6"/>
<stop offset="0.9943" stop-color="#0072EC"/>
</linearGradient>
<linearGradient id="paint4_linear_756_27179" x1="32.3728" y1="118.649" x2="31.5107" y2="112.34" gradientUnits="userSpaceOnUse">
<stop offset="0.0731" stop-color="#007FF9"/>
<stop offset="1" stop-color="#007CF6"/>
</linearGradient>
<linearGradient id="paint5_linear_756_27179" x1="31.8873" y1="120.304" x2="37.23" y2="131.448" gradientUnits="userSpaceOnUse">
<stop offset="0.0731" stop-color="#007FF9"/>
<stop offset="1" stop-color="#0082FB"/>
</linearGradient>
<linearGradient id="paint6_linear_756_27179" x1="111.788" y1="66.0605" x2="118.813" y2="56.5066" gradientUnits="userSpaceOnUse">
<stop offset="0.2799" stop-color="#007FF8"/>
<stop offset="0.9141" stop-color="#0082FB"/>
</linearGradient>
<linearGradient id="paint7_linear_756_27179" x1="164.046" y1="53.5241" x2="178.878" y2="107.181" gradientUnits="userSpaceOnUse">
<stop stop-color="#0082FB"/>
<stop offset="0.9995" stop-color="#0081FA"/>
</linearGradient>
<linearGradient id="paint8_linear_756_27179" x1="181.866" y1="109.361" x2="172.52" y2="127.935" gradientUnits="userSpaceOnUse">
<stop offset="0.0619" stop-color="#0081FA"/>
<stop offset="1" stop-color="#0080F9"/>
</linearGradient>
<linearGradient id="paint9_linear_756_27179" x1="165.553" y1="137.984" x2="174.148" y2="132.228" gradientUnits="userSpaceOnUse">
<stop stop-color="#027AF3"/>
<stop offset="1" stop-color="#0080F9"/>
</linearGradient>
<linearGradient id="paint10_linear_756_27179" x1="152.21" y1="139.131" x2="164.03" y2="139.131" gradientUnits="userSpaceOnUse">
<stop stop-color="#0377EF"/>
<stop offset="0.9994" stop-color="#0279F1"/>
</linearGradient>
<linearGradient id="paint11_linear_756_27179" x1="141.938" y1="132.506" x2="150.508" y2="137.464" gradientUnits="userSpaceOnUse">
<stop offset="0.0019" stop-color="#0471E9"/>
<stop offset="1" stop-color="#0377EF"/>
</linearGradient>
<linearGradient id="paint12_linear_756_27179" x1="116.036" y1="95.009" x2="143.817" y2="129.357" gradientUnits="userSpaceOnUse">
<stop offset="0.2765" stop-color="#0867DF"/>
<stop offset="1" stop-color="#0471E9"/>
</linearGradient>
<clipPath id="clip0_756_27179">
<rect x="0.5" y="0.0629883" width="215" height="186" rx="6" fill="white"/>
</clipPath>
</defs>
</svg>
