<svg width="80" height="80" viewBox="0 0 80 80" fill="none" xmlns="http://www.w3.org/2000/svg">
<rect x="0.5" y="0.5" width="79" height="79" rx="5.5" fill="#66CB9F"/>
<path d="M17.2756 54V27.8182H27.6051C29.5909 27.8182 31.2827 28.1974 32.6804 28.956C34.0781 29.706 35.1435 30.75 35.8764 32.0881C36.6179 33.4176 36.9886 34.9517 36.9886 36.6903C36.9886 38.429 36.6136 39.9631 35.8636 41.2926C35.1136 42.6222 34.027 43.6577 32.6037 44.3991C31.1889 45.1406 29.4759 45.5114 27.4645 45.5114H20.8807V41.0753H26.5696C27.6349 41.0753 28.5128 40.892 29.2031 40.5256C29.902 40.1506 30.4219 39.6349 30.7628 38.9787C31.1122 38.3139 31.2869 37.5511 31.2869 36.6903C31.2869 35.821 31.1122 35.0625 30.7628 34.4148C30.4219 33.7585 29.902 33.2514 29.2031 32.8935C28.5043 32.527 27.6179 32.3438 26.544 32.3438H22.8111V54H17.2756ZM49.8654 54H40.5842V27.8182H49.9421C52.5756 27.8182 54.8427 28.3423 56.7433 29.3906C58.6438 30.4304 60.1055 31.9261 61.1282 33.8778C62.1594 35.8295 62.6751 38.1648 62.6751 40.8835C62.6751 43.6108 62.1594 45.9545 61.1282 47.9148C60.1055 49.875 58.6353 51.3793 56.7177 52.4276C54.8086 53.4759 52.5245 54 49.8654 54ZM46.1197 49.2571H49.6353C51.2717 49.2571 52.6481 48.9673 53.7646 48.3878C54.8896 47.7997 55.7333 46.892 56.2958 45.6648C56.8668 44.429 57.1523 42.8352 57.1523 40.8835C57.1523 38.9489 56.8668 37.3679 56.2958 36.1406C55.7333 34.9134 54.8938 34.0099 53.7773 33.4304C52.6609 32.8509 51.2844 32.5611 49.6481 32.5611H46.1197V49.2571Z" fill="black"/>
<rect x="0.5" y="0.5" width="79" height="79" rx="5.5" stroke="#EDF2F7"/>
</svg>
