<svg width="80" height="80" viewBox="0 0 80 80" fill="none" xmlns="http://www.w3.org/2000/svg">
<rect x="0.5" y="0.5" width="79" height="79" rx="5.5" fill="#4CAFD0"/>
<path d="M13.2756 53V26.8182H23.6051C25.5909 26.8182 27.2827 27.1974 28.6804 27.956C30.0781 28.706 31.1435 29.75 31.8764 31.0881C32.6179 32.4176 32.9886 33.9517 32.9886 35.6903C32.9886 37.429 32.6136 38.9631 31.8636 40.2926C31.1136 41.6222 30.027 42.6577 28.6037 43.3991C27.1889 44.1406 25.4759 44.5114 23.4645 44.5114H16.8807V40.0753H22.5696C23.6349 40.0753 24.5128 39.892 25.2031 39.5256C25.902 39.1506 26.4219 38.6349 26.7628 37.9787C27.1122 37.3139 27.2869 36.5511 27.2869 35.6903C27.2869 34.821 27.1122 34.0625 26.7628 33.4148C26.4219 32.7585 25.902 32.2514 25.2031 31.8935C24.5043 31.527 23.6179 31.3438 22.544 31.3438H18.8111V53H13.2756ZM36.5842 26.8182H43.4109L50.6211 44.4091H50.9279L58.1381 26.8182H64.9648V53H59.5955V35.9588H59.3782L52.6026 52.8722H48.9464L42.1708 35.8949H41.9535V53H36.5842V26.8182Z" fill="white"/>
<rect x="0.5" y="0.5" width="79" height="79" rx="5.5" stroke="#EDF2F7"/>
</svg>
