<svg width="127" height="40" viewBox="0 0 127 40" fill="none" xmlns="http://www.w3.org/2000/svg">
<path d="M0 16C0 8.45753 0 4.68629 2.34315 2.34315C4.68629 0 8.45753 0 16 0H111C118.542 0 122.314 0 124.657 2.34315C127 4.68629 127 8.45753 127 16V24C127 31.5425 127 35.3137 124.657 37.6569C122.314 40 118.542 40 111 40H16C8.45753 40 4.68629 40 2.34315 37.6569C0 35.3137 0 31.5425 0 24V16Z" fill="white"/>
<path d="M101 17L107 23L113 17" stroke="black" stroke-width="2" stroke-linecap="round" stroke-linejoin="round"/>
<path d="M2.34315 37.6569L1.63604 38.364L2.34315 37.6569ZM124.657 37.6569L125.364 38.364L124.657 37.6569ZM124.657 2.34315L125.364 1.63604L124.657 2.34315ZM2.34315 2.34315L1.63604 1.63604L2.34315 2.34315ZM16 1H111V-1H16V1ZM126 16V24H128V16H126ZM111 39H16V41H111V39ZM1 24V16H-1V24H1ZM16 39C12.2005 39 9.45146 38.9979 7.35507 38.716C5.28745 38.438 4.00506 37.9046 3.05025 36.9497L1.63604 38.364C3.02438 39.7523 4.79918 40.3904 7.08858 40.6982C9.34921 41.0021 12.257 41 16 41V39ZM-1 24C-1 27.743 -1.00212 30.6508 -0.69819 32.9114C-0.390388 35.2008 0.247697 36.9756 1.63604 38.364L3.05025 36.9497C2.09545 35.9949 1.56196 34.7126 1.28398 32.6449C1.00212 30.5485 1 27.7995 1 24H-1ZM126 24C126 27.7995 125.998 30.5485 125.716 32.6449C125.438 34.7126 124.905 35.9949 123.95 36.9497L125.364 38.364C126.752 36.9756 127.39 35.2008 127.698 32.9114C128.002 30.6508 128 27.743 128 24H126ZM111 41C114.743 41 117.651 41.0021 119.911 40.6982C122.201 40.3904 123.976 39.7523 125.364 38.364L123.95 36.9497C122.995 37.9046 121.713 38.438 119.645 38.716C117.549 38.9979 114.8 39 111 39V41ZM111 1C114.8 1 117.549 1.00212 119.645 1.28398C121.713 1.56196 122.995 2.09545 123.95 3.05025L125.364 1.63604C123.976 0.247697 122.201 -0.390388 119.911 -0.69819C117.651 -1.00212 114.743 -1 111 -1V1ZM128 16C128 12.257 128.002 9.34921 127.698 7.08858C127.39 4.79918 126.752 3.02438 125.364 1.63604L123.95 3.05025C124.905 4.00506 125.438 5.28745 125.716 7.35507C125.998 9.45146 126 12.2005 126 16H128ZM16 -1C12.257 -1 9.34921 -1.00212 7.08858 -0.69819C4.79918 -0.390388 3.02438 0.247697 1.63604 1.63604L3.05025 3.05025C4.00506 2.09545 5.28745 1.56196 7.35507 1.28398C9.45146 1.00212 12.2005 1 16 1V-1ZM1 16C1 12.2005 1.00212 9.45146 1.28398 7.35507C1.56196 5.28745 2.09545 4.00506 3.05025 3.05025L1.63604 1.63604C0.247697 3.02438 -0.390388 4.79918 -0.69819 7.08858C-1.00212 9.34921 -1 12.257 -1 16H1Z" fill="#E2E8F0"/>
</svg>
