<svg width="80" height="80" viewBox="0 0 80 80" fill="none" xmlns="http://www.w3.org/2000/svg">
<rect x="0.5" y="0.5" width="79" height="79" rx="5.5" fill="#7895FF"/>
<path d="M40.4474 27.8182H45.983V44.821C45.983 46.7301 45.527 48.4006 44.6151 49.8324C43.7116 51.2642 42.446 52.3807 40.8182 53.1818C39.1903 53.9744 37.294 54.3707 35.1293 54.3707C32.956 54.3707 31.0554 53.9744 29.4276 53.1818C27.7997 52.3807 26.5341 51.2642 25.6307 49.8324C24.7273 48.4006 24.2756 46.7301 24.2756 44.821V27.8182H29.8111V44.348C29.8111 45.3452 30.0284 46.2315 30.4631 47.0071C30.9063 47.7827 31.5284 48.392 32.3295 48.8352C33.1307 49.2784 34.0639 49.5 35.1293 49.5C36.2031 49.5 37.1364 49.2784 37.929 48.8352C38.7301 48.392 39.348 47.7827 39.7827 47.0071C40.2259 46.2315 40.4474 45.3452 40.4474 44.348V27.8182ZM56.0728 27.8182V54H50.5373V27.8182H56.0728Z" fill="white"/>
<rect x="0.5" y="0.5" width="79" height="79" rx="5.5" stroke="#EDF2F7"/>
</svg>
