<svg width="74" height="8" viewBox="0 0 74 8" fill="none" xmlns="http://www.w3.org/2000/svg">
<path d="M8.35319 3.49763H2.39244V2.14725H10.0787C9.87699 1.57436 9.22713 1.0424 8.08428 1.0424H2.50448C1.22718 1.0424 0.48769 1.47206 0.48769 2.41323V3.41579C0.48769 4.23419 1.24959 4.70478 2.37003 4.70478H8.39801V6.137H0.286011C0.48769 6.91449 1.13755 7.32369 2.30281 7.32369H8.3756C9.6529 7.32369 10.2803 6.87356 10.2803 5.91193V4.90938C10.2803 4.02959 9.54086 3.55901 8.35319 3.49763ZM20.5212 1.06286H13.1711V7.34415H15.2551V4.92984H20.678C22.1794 4.92984 23.0086 4.45926 23.0086 3.3544V2.65876C22.9862 1.63574 22.045 1.06286 20.5212 1.06286ZM21.1934 3.06796C21.1934 3.51809 21.1038 3.76361 20.2971 3.76361H15.2551L15.2775 2.12679H20.2075C21.1038 2.12679 21.2159 2.37231 21.2159 2.80198V3.06796H21.1934ZM29.9329 4.88892H25.4959L24.3979 5.95285H30.8068L31.9049 7.34415H34.3698L29.0589 0.796875L27.8041 2.20863L29.9329 4.88892ZM38.3586 2.14725H46.1569C45.9552 1.41068 45.1709 1.0424 44.0505 1.0424H38.2242C37.2158 1.0424 36.2522 1.41068 36.2522 2.41323V5.93239C36.2522 6.93495 37.2158 7.30323 38.2242 7.30323H44.1177C45.4622 7.30323 45.9328 6.95541 46.1569 6.11654H38.3586V2.14725ZM55.2997 4.23419V3.17026H49.0028V7.34415H58.3025V6.15746H51.1092V4.23419H55.2997ZM49.2269 1.06286H58.6162V2.16771H49.2269V1.06286ZM64.3977 1.06286H61.126L64.9803 3.64085C65.5405 3.29302 66.1904 2.92474 66.773 2.61784L64.3977 1.06286ZM69.1483 4.27511C68.5881 4.62294 68.0279 5.01168 67.4901 5.37997L70.4032 7.32369H73.6973L69.1483 4.27511Z" fill="black"/>
</svg>
