<svg width="91" height="26" viewBox="0 0 91 26" fill="none" xmlns="http://www.w3.org/2000/svg">
<path d="M16.3041 22.5596C12.6957 22.474 9.27911 21.3841 6.79079 19.5246C4.30247 17.6652 2.94173 15.1852 3.00191 12.6192C3.0621 10.0533 4.53838 7.6069 7.11251 5.80745C9.68665 4.00799 13.1525 2.99957 16.7629 2.99957C20.3733 2.99957 23.8392 4.00799 26.4133 5.80745C28.9874 7.6069 30.4637 10.0533 30.5239 12.6192C30.5841 15.1852 29.2233 17.6652 26.735 19.5246C24.2467 21.3841 20.8301 22.474 17.2217 22.5596H16.3041ZM35.5722 22.5596C31.9638 22.474 28.5472 21.3841 26.0589 19.5246C23.5705 17.6652 22.2098 15.1852 22.27 12.6192C22.3302 10.0533 23.8064 7.6069 26.3806 5.80745C28.9547 4.00799 32.4206 2.99957 36.031 2.99957C39.6414 2.99957 43.1072 4.00799 45.6814 5.80745C48.2555 7.6069 49.7318 10.0533 49.792 12.6192C49.8521 15.1852 48.4914 17.6652 46.0031 19.5246C43.5148 21.3841 40.0981 22.474 36.4897 22.5596H35.5722ZM54.8403 22.5596C51.2319 22.474 47.8152 21.3841 45.3269 19.5246C42.8386 17.6652 41.4779 15.1852 41.538 12.6192C41.5982 10.0533 43.0745 7.6069 45.6486 5.80745C48.2228 4.00799 51.6886 2.99957 55.299 2.99957C58.9094 2.99957 62.3753 4.00799 64.9494 5.80745C67.5236 7.6069 68.9998 10.0533 69.06 12.6192C69.1202 15.1852 67.7595 17.6652 65.2711 19.5246C62.7828 21.3841 59.3662 22.474 55.7578 22.5596H54.8403ZM74.1083 22.5596C70.4999 22.474 67.0833 21.3841 64.595 19.5246C62.1067 17.6652 60.7459 15.1852 60.8061 12.6192C60.8663 10.0533 62.3426 7.6069 64.9167 5.80745C67.4908 4.00799 70.9567 2.99957 74.5671 2.99957C78.1775 2.99957 81.6433 4.00799 84.2175 5.80745C86.7916 7.6069 88.2679 10.0533 88.3281 12.6192C88.3883 15.1852 87.0275 17.6652 84.5392 19.5246C82.0509 21.3841 78.6343 22.474 75.0259 22.5596H74.1083Z" stroke="#909090" stroke-width="5"/>
</svg>
