<svg width="80" height="80" viewBox="0 0 80 80" fill="none" xmlns="http://www.w3.org/2000/svg">
<rect x="0.5" y="0.5" width="79" height="79" rx="5.5" fill="#1DA1F2"/>
<path d="M19.169 53L11.6776 26.8182H17.7244L22.0582 45.0099H22.2756L27.0568 26.8182H32.2344L37.0028 45.0483H37.233L41.5668 26.8182H47.6136L40.1222 53H34.7273L29.7415 35.8821H29.5369L24.5639 53H19.169ZM59.8576 53H50.5763V26.8182H59.9343C62.5678 26.8182 64.8349 27.3423 66.7354 28.3906C68.636 29.4304 70.0977 30.9261 71.1204 32.8778C72.1516 34.8295 72.6673 37.1648 72.6673 39.8835C72.6673 42.6108 72.1516 44.9545 71.1204 46.9148C70.0977 48.875 68.6275 50.3793 66.7099 51.4276C64.8008 52.4759 62.5167 53 59.8576 53ZM56.1119 48.2571H59.6275C61.2638 48.2571 62.6403 47.9673 63.7567 47.3878C64.8817 46.7997 65.7255 45.892 66.288 44.6648C66.859 43.429 67.1445 41.8352 67.1445 39.8835C67.1445 37.9489 66.859 36.3679 66.288 35.1406C65.7255 33.9134 64.886 33.0099 63.7695 32.4304C62.6531 31.8509 61.2766 31.5611 59.6403 31.5611H56.1119V48.2571Z" fill="white"/>
<rect x="0.5" y="0.5" width="79" height="79" rx="5.5" stroke="#EDF2F7"/>
</svg>
